<svg 
 xmlns="http://www.w3.org/2000/svg"
 xmlns:xlink="http://www.w3.org/1999/xlink"
 width="22px" height="24px">
<path fill-rule="evenodd"  fill="rgb(163, 182, 204)"
 d="M21.626,20.768 C21.511,20.881 21.356,20.944 21.194,20.944 L14.673,20.944 C14.380,22.676 12.845,24.000 11.000,24.000 C9.154,24.000 7.619,22.676 7.327,20.944 L0.805,20.944 C0.644,20.944 0.488,20.881 0.374,20.768 C-0.053,20.350 -0.031,19.237 0.040,18.707 C0.150,17.890 0.460,17.315 0.938,17.045 C2.587,16.110 3.585,13.568 3.904,9.487 C4.141,6.461 6.339,3.981 9.199,3.233 C8.984,2.906 8.860,2.517 8.860,2.101 C8.860,0.942 9.820,-0.000 11.000,-0.000 C12.179,-0.000 13.139,0.942 13.139,2.100 C13.139,2.517 13.015,2.906 12.800,3.233 C15.660,3.981 17.858,6.461 18.095,9.487 C18.414,13.567 19.412,16.110 21.061,17.045 C21.288,17.173 21.476,17.371 21.624,17.629 C21.634,17.645 21.643,17.660 21.651,17.676 C21.800,17.955 21.904,18.300 21.959,18.706 C22.030,19.236 22.052,20.350 21.626,20.768 ZM11.000,22.800 C12.168,22.800 13.152,22.009 13.425,20.944 L8.574,20.944 C8.847,22.009 9.831,22.800 11.000,22.800 ZM11.000,1.200 C10.494,1.200 10.082,1.604 10.082,2.101 C10.082,2.597 10.494,3.001 11.000,3.001 C11.506,3.001 11.917,2.597 11.917,2.101 C11.917,1.604 11.505,1.200 11.000,1.200 ZM20.757,18.943 C20.740,18.788 20.714,18.656 20.685,18.544 L13.383,18.544 C13.045,18.544 12.772,18.276 12.772,17.944 C12.772,17.613 13.045,17.344 13.383,17.344 L19.477,17.344 C19.134,17.008 18.825,16.608 18.549,16.144 L15.665,16.144 C15.328,16.144 15.055,15.876 15.055,15.544 C15.055,15.213 15.328,14.944 15.665,14.944 L17.963,14.944 C17.408,13.556 17.047,11.774 16.876,9.579 C16.640,6.564 14.059,4.201 10.999,4.201 C7.940,4.201 5.359,6.564 5.123,9.579 C4.766,14.142 3.597,16.924 1.549,18.084 C1.457,18.136 1.301,18.407 1.242,18.943 C1.207,19.264 1.221,19.548 1.246,19.744 L20.753,19.744 C20.778,19.548 20.792,19.263 20.757,18.943 ZM11.183,18.544 L10.816,18.544 C10.478,18.544 10.205,18.276 10.205,17.944 C10.205,17.613 10.479,17.344 10.816,17.344 L11.183,17.344 C11.520,17.344 11.794,17.613 11.794,17.944 C11.794,18.276 11.520,18.544 11.183,18.544 Z"/>
</svg>