<svg 
 xmlns="http://www.w3.org/2000/svg"
 xmlns:xlink="http://www.w3.org/1999/xlink"
 width="30px" height="24px">
<path fill-rule="evenodd"  fill="rgb(255, 255, 255)"
 d="M15.000,9.000 C12.514,9.000 10.500,11.015 10.500,13.500 C10.500,15.986 12.514,18.000 15.000,18.000 C17.485,18.000 19.500,15.986 19.500,13.500 C19.500,11.015 17.485,9.000 15.000,9.000 ZM27.000,4.500 L23.400,4.500 C22.905,4.500 22.372,4.116 22.215,3.646 L21.285,0.853 C21.128,0.384 20.595,-0.000 20.100,-0.000 L9.900,-0.000 C9.405,-0.000 8.872,0.384 8.715,0.854 L7.785,3.647 C7.628,4.116 7.095,4.500 6.600,4.500 L3.000,4.500 C1.350,4.500 -0.000,5.850 -0.000,7.500 L-0.000,21.000 C-0.000,22.650 1.350,24.000 3.000,24.000 L27.000,24.000 C28.650,24.000 30.000,22.650 30.000,21.000 L30.000,7.500 C30.000,5.850 28.650,4.500 27.000,4.500 ZM15.000,21.000 C10.858,21.000 7.500,17.642 7.500,13.500 C7.500,9.358 10.858,6.000 15.000,6.000 C19.141,6.000 22.500,9.358 22.500,13.500 C22.500,17.642 19.141,21.000 15.000,21.000 ZM25.950,9.598 C25.371,9.598 24.900,9.128 24.900,8.548 C24.900,7.968 25.371,7.498 25.950,7.498 C26.530,7.498 27.000,7.968 27.000,8.548 C27.000,9.128 26.530,9.598 25.950,9.598 Z"/>
</svg>