<svg 
 xmlns="http://www.w3.org/2000/svg"
 xmlns:xlink="http://www.w3.org/1999/xlink"
 width="23px" height="20px">
<path fill-rule="evenodd"  fill="rgb(255, 255, 255)"
 d="M20.386,20.000 L2.614,20.000 C1.176,20.000 -0.000,18.816 -0.000,17.368 L-0.000,14.210 L-0.000,6.052 L-0.000,2.632 C-0.000,1.184 1.176,-0.000 2.614,-0.000 L17.511,-0.000 C18.949,-0.000 20.125,1.184 20.125,2.632 L20.125,3.158 L20.386,3.158 C21.824,3.158 23.000,4.342 23.000,5.789 L23.000,17.368 C23.000,18.816 21.824,20.000 20.386,20.000 ZM21.954,5.789 C21.954,4.921 21.249,4.210 20.386,4.210 L6.273,4.210 C5.985,4.210 5.750,3.974 5.750,3.684 C5.750,3.395 5.985,3.158 6.273,3.158 L19.079,3.158 L19.079,2.632 C19.079,1.763 18.374,1.052 17.511,1.052 L2.614,1.052 C1.751,1.052 1.045,1.763 1.045,2.632 L1.045,6.052 L1.045,14.210 L1.045,17.368 C1.045,18.237 1.751,18.947 2.614,18.947 L20.386,18.947 C21.249,18.947 21.954,18.237 21.954,17.368 L21.954,5.789 ZM17.772,13.684 C16.623,13.684 15.682,12.737 15.682,11.579 C15.682,10.421 16.623,9.474 17.772,9.474 C18.923,9.474 19.863,10.421 19.863,11.579 C19.863,12.737 18.923,13.684 17.772,13.684 ZM17.772,10.526 C17.198,10.526 16.727,11.000 16.727,11.579 C16.727,12.158 17.198,12.631 17.772,12.631 C18.348,12.631 18.818,12.158 18.818,11.579 C18.818,11.000 18.348,10.526 17.772,10.526 ZM3.920,4.210 L3.136,4.210 C2.849,4.210 2.614,3.974 2.614,3.684 C2.614,3.395 2.849,3.158 3.136,3.158 L3.920,3.158 C4.208,3.158 4.443,3.395 4.443,3.684 C4.443,3.974 4.208,4.210 3.920,4.210 Z"/>
</svg>