<svg width="16" height="16" viewBox="0 0 16 16" fill="none" xmlns="http://www.w3.org/2000/svg">
<path d="M15.6421 3.84662L15.6373 3.82815C15.2513 2.31844 13.5111 0.698429 11.913 0.361398L11.895 0.357807C9.31018 -0.119269 6.68929 -0.119269 4.10498 0.357807L4.08643 0.361398C2.48887 0.698429 0.748675 2.31844 0.362142 3.82815L0.3579 3.84662C-0.1193 5.95499 -0.1193 8.09311 0.3579 10.2015L0.362142 10.2199C0.732185 11.6652 2.34279 13.2108 3.88123 13.6359V15.3211C3.88123 15.9311 4.64952 16.2306 5.08643 15.7905L6.85127 14.0156C7.23404 14.0363 7.61702 14.0479 8 14.0479C9.30117 14.0479 10.6029 13.9289 11.895 13.6903L11.913 13.6867C13.5111 13.3497 15.2513 11.7297 15.6373 10.22L15.6421 10.2015C16.1193 8.09311 16.1193 5.95499 15.6421 3.84662ZM14.2455 9.89574C13.9878 10.8807 12.6665 12.1052 11.6166 12.3314C10.2423 12.5842 8.857 12.6923 7.47312 12.6552C7.4456 12.6545 7.41914 12.6648 7.39995 12.6839C7.20355 12.8789 6.11135 13.9637 6.11135 13.9637L4.74072 15.3247C4.64051 15.4257 4.46448 15.357 4.46448 15.2174V12.4257C4.46448 12.3796 4.43043 12.3404 4.38362 12.3315C4.38335 12.3314 4.38309 12.3314 4.38282 12.3313C3.33298 12.1051 2.0122 10.8806 1.75398 9.89568C1.3245 7.98994 1.3245 6.05804 1.75398 4.15231C2.0122 3.16737 3.33298 1.94288 4.38282 1.71665C6.78314 1.27497 9.21686 1.27497 11.6166 1.71665C12.667 1.94288 13.9878 3.16737 14.2455 4.15231C14.6755 6.05809 14.6755 7.99 14.2455 9.89574Z" fill="#613887"/>
<path d="M10.2836 11.1844C10.1222 11.137 9.96835 11.1051 9.8255 11.0478C8.34533 10.4536 6.98309 9.68713 5.90403 8.51214C5.2904 7.84397 4.81013 7.08963 4.40413 6.29132C4.21161 5.91274 4.04936 5.51933 3.88399 5.12849C3.73319 4.77207 3.9553 4.40385 4.18918 4.1353C4.40864 3.88327 4.69104 3.69039 4.99687 3.54824C5.23558 3.43728 5.47105 3.50125 5.64539 3.697C6.02227 4.12022 6.36845 4.56508 6.64878 5.05564C6.82115 5.35738 6.77386 5.72622 6.46145 5.93157C6.38552 5.98148 6.31633 6.04006 6.2456 6.09644C6.18356 6.14584 6.12518 6.19575 6.08266 6.26265C6.00493 6.38504 6.00122 6.5294 6.05127 6.66247C6.43653 7.6868 7.0859 8.48331 8.15154 8.91232C8.32206 8.98095 8.49332 9.06088 8.68977 9.03872C9.01877 9.00152 9.12529 8.65239 9.35583 8.46997C9.58118 8.29171 9.86914 8.28935 10.1119 8.43796C10.3547 8.58662 10.59 8.74621 10.824 8.90749C11.0536 9.0658 11.2822 9.22067 11.4941 9.40114C11.6977 9.57468 11.7679 9.80235 11.6532 10.0379C11.4432 10.4692 11.1377 10.828 10.697 11.0571C10.5725 11.1216 10.4239 11.1426 10.2836 11.1844C10.4239 11.1426 10.1222 11.1369 10.2836 11.1844Z" fill="#613887"/>
<path d="M8.00409 3.05504C9.94019 3.10752 11.5304 4.35063 11.8712 6.20251C11.9292 6.51805 11.9499 6.84066 11.9757 7.16092C11.9866 7.29563 11.9077 7.42362 11.7575 7.42536C11.6023 7.42716 11.5325 7.30153 11.5224 7.16687C11.5024 6.90032 11.4886 6.6326 11.4506 6.36826C11.2502 4.97289 10.1002 3.81846 8.66458 3.57074C8.44857 3.53345 8.22747 3.52365 8.00865 3.50144C7.87031 3.48738 7.68913 3.47928 7.65849 3.31292C7.63277 3.17344 7.75446 3.06238 7.89173 3.05525C7.92906 3.05324 7.9666 3.05489 8.00409 3.05504C7.9666 3.05489 9.94019 3.10752 8.00409 3.05504Z" fill="#613887"/>
<path d="M10.9464 6.74532C10.9432 6.76871 10.9415 6.8237 10.9273 6.87551C10.876 7.06357 10.5813 7.08712 10.5134 6.89731C10.4933 6.84099 10.4903 6.77692 10.4902 6.71628C10.4895 6.31954 10.4004 5.92321 10.1936 5.57802C9.981 5.22324 9.65624 4.92499 9.27533 4.74452C9.045 4.63541 8.7959 4.56759 8.54346 4.52717C8.43312 4.50952 8.32161 4.4988 8.21074 4.48387C8.07639 4.46582 8.00465 4.38297 8.01101 4.25488C8.01695 4.13484 8.10762 4.0485 8.24282 4.05589C8.68715 4.08031 9.11631 4.17321 9.51133 4.37558C10.3146 4.78715 10.7735 5.4368 10.9074 6.30425C10.9134 6.34355 10.9232 6.38248 10.9263 6.42193C10.9339 6.51935 10.9386 6.61687 10.9464 6.74532C10.9386 6.61687 10.9432 6.76871 10.9464 6.74532Z" fill="#613887"/>
<path d="M9.74209 6.69991C9.5801 6.70273 9.49341 6.61599 9.47671 6.4723C9.4651 6.37211 9.45592 6.27059 9.43122 6.17313C9.38254 5.98117 9.27708 5.80326 9.11017 5.68564C9.03138 5.63008 8.94209 5.58961 8.84855 5.56349C8.72973 5.5303 8.60635 5.53944 8.48779 5.51132C8.35905 5.4808 8.28784 5.37995 8.3081 5.26309C8.3265 5.15675 8.43344 5.07375 8.55354 5.08216C9.30418 5.13459 9.84065 5.51004 9.91722 6.36498C9.92263 6.42531 9.92899 6.48907 9.91515 6.54678C9.89145 6.64558 9.81584 6.69509 9.74209 6.69991C9.81584 6.69509 9.5801 6.70273 9.74209 6.69991Z" fill="#613887"/>
</svg>
