<svg xmlns="http://www.w3.org/2000/svg" width="18" height="16">
    <path fill="#4E54C8" fill-rule="evenodd" d="M17.677 15.996H.324a.28.28 0 0 1-.32-.32V2.06c0-.22.1-.46.32-.46h5.078V.32c0-.22.259-.32.479-.32h6.238c.22 0 .48.1.48.32V1.6h5.078c.22 0 .32.24.32.46v13.616a.28.28 0 0 1-.32.32zM5.402 2.399H.803v12.798h4.599V2.399zM11.799.8H6.201v14.397h5.598V.8zm5.398 1.599h-4.598v12.798h4.598V2.399zm-2.199 8.738a1.56 1.56 0 1 1-.002 3.12 1.56 1.56 0 0 1 .002-3.12zm0 2.32a.76.76 0 1 0 0-1.52.76.76 0 0 0 0 1.52zm.899-3.659h-1.919a.4.4 0 1 1 0-.8h1.919a.4.4 0 1 1 0 .8zm0-2.48h-1.919a.4.4 0 1 1 0-.799h1.919a.4.4 0 1 1 0 .799zm0-2.479h-1.919a.4.4 0 1 1 0-.8h1.919a.4.4 0 1 1 0 .8zM10.2 8.998H7.801a.4.4 0 1 1 0-.8H10.2a.4.4 0 1 1 0 .8zm0-2.799H7.801a.4.4 0 1 1 0-.8H10.2a.4.4 0 1 1 0 .8zm0-2.8H7.801a.4.4 0 1 1 0-.8H10.2a.4.4 0 1 1 0 .8zM9 11.137a1.56 1.56 0 1 1-.001 3.121A1.56 1.56 0 0 1 9 11.137zm0 2.32a.76.76 0 1 0 0-1.52.76.76 0 0 0 0 1.52zm-5.998-2.32a1.56 1.56 0 1 1 0 3.12 1.56 1.56 0 0 1 0-3.12zm0 2.32a.76.76 0 1 0 0-1.52.76.76 0 0 0 0 1.52zm1.02-3.659H2.103a.4.4 0 1 1 0-.8h1.919a.4.4 0 1 1 0 .8zm0-2.48H2.103a.4.4 0 1 1 0-.799h1.919a.4.4 0 1 1 0 .799zm0-2.479H2.103a.4.4 0 1 1 0-.8h1.919a.4.4 0 1 1 0 .8z"/>
</svg>
