<svg xmlns="http://www.w3.org/2000/svg" width="16" height="16">
    <path fill="#4E54C8" fill-rule="evenodd" d="M14.084 16H1.916C.893 16 0 15.224 0 14.156V9.304a.414.414 0 0 1 .074-.194L2.53 4.393a.41.41 0 0 1 .335-.233h1.414a.38.38 0 0 1 .372.388.38.38 0 0 1-.372.389H3.088L1.042 9.013h2.084c.961-.005 1.836.58 2.232 1.494a1.726 1.726 0 0 0 1.563 1.029h2.158c.668 0 1.276-.4 1.563-1.029.396-.914 1.271-1.499 2.232-1.494h2.121l-1.73-4.076h-1.544a.38.38 0 0 1-.372-.389.38.38 0 0 1 .372-.388h1.786a.394.394 0 0 1 .335.253l2.102 4.735a.511.511 0 0 1 .056.156v4.852C16 15.224 15.107 16 14.084 16zm1.172-6.211h-2.382c-.667 0-1.275.4-1.562 1.029-.397.914-1.271 1.499-2.233 1.494H6.921c-.962.005-1.836-.58-2.233-1.494a1.726 1.726 0 0 0-1.562-1.029H.744v4.367c0 .641.558 1.068 1.172 1.068h12.168c.614 0 1.172-.427 1.172-1.068V9.789zM10.27 3.326l-1.898-2v7.182A.38.38 0 0 1 8 8.896a.38.38 0 0 1-.372-.388V1.326l-1.898 2a.38.38 0 0 1-.521 0 .42.42 0 0 1 0-.563L7.74.104a.376.376 0 0 1 .52 0l2.531 2.659a.42.42 0 0 1 0 .563.397.397 0 0 1-.521 0z"/>
</svg>
