<svg xmlns="http://www.w3.org/2000/svg" width="16" height="16">
    <path fill="#4E54C8" fill-rule="evenodd" d="M15.359 3.734l-7.527 7.527a.562.562 0 0 1-.223.138l-3.428 1.143a.59.59 0 0 1-.361 0 .571.571 0 0 1-.362-.723l1.143-3.428a.573.573 0 0 1 .138-.224L12.266.641a2.186 2.186 0 1 1 3.093 3.093zm-.807-2.281a1.046 1.046 0 0 0-1.479-.002L5.642 8.88l-.739 2.216 2.22-.741 7.428-7.428c.197-.196.307-.462.306-.739a1.048 1.048 0 0 0-.305-.735zm-5.981.832H1.714a.572.572 0 0 0-.571.572v11.429c0 .315.256.571.571.571H12a.571.571 0 0 0 .571-.571V8.571a.572.572 0 0 1 1.143 0v5.715c0 .946-.767 1.714-1.714 1.714H1.714A1.714 1.714 0 0 1 0 14.286V2.857c0-.947.767-1.715 1.714-1.715h6.857a.572.572 0 1 1 0 1.143z"/>
</svg>
