<svg 
 xmlns="http://www.w3.org/2000/svg"
 xmlns:xlink="http://www.w3.org/1999/xlink"
 width="17px" height="16px">
<path fill-rule="evenodd"  fill="rgb(0, 0, 0)"
 d="M7.230,8.000 L0.145,15.133 C-0.052,15.331 -0.052,15.652 0.145,15.850 C0.243,15.950 0.372,15.999 0.501,15.999 C0.630,15.999 0.759,15.950 0.857,15.850 L7.996,8.664 L15.134,15.850 C15.233,15.950 15.362,15.999 15.491,15.999 C15.619,15.999 15.748,15.950 15.847,15.850 C16.044,15.652 16.044,15.331 15.847,15.133 L8.762,8.000 L15.852,0.861 C16.048,0.663 16.048,0.342 15.852,0.144 C15.655,-0.054 15.336,-0.054 15.139,0.144 L7.996,7.336 L0.852,0.144 C0.656,-0.054 0.337,-0.054 0.140,0.144 C-0.057,0.342 -0.057,0.663 0.140,0.862 L7.230,8.000 Z"/>
</svg>