<svg 
 xmlns="http://www.w3.org/2000/svg"
 xmlns:xlink="http://www.w3.org/1999/xlink"
 width="23px" height="24px">
<path fill-rule="evenodd"  fill="rgb(255, 255, 255)"
 d="M22.609,20.769 C22.489,20.881 22.327,20.944 22.157,20.944 L15.340,20.944 C15.034,22.676 13.429,24.000 11.500,24.000 C9.571,24.000 7.966,22.676 7.660,20.944 L0.842,20.944 C0.673,20.944 0.510,20.881 0.391,20.769 C-0.055,20.351 -0.032,19.237 0.042,18.707 C0.157,17.890 0.481,17.316 0.981,17.045 C2.705,16.110 3.748,13.568 4.082,9.487 C4.329,6.461 6.627,3.981 9.617,3.233 C9.393,2.906 9.262,2.517 9.262,2.101 C9.262,0.942 10.266,-0.000 11.500,-0.000 C12.733,-0.000 13.737,0.942 13.737,2.101 C13.737,2.517 13.606,2.906 13.382,3.233 C16.372,3.981 18.670,6.461 18.917,9.487 C19.251,13.567 20.294,16.110 22.019,17.045 C22.256,17.173 22.453,17.371 22.607,17.630 C22.617,17.645 22.626,17.660 22.635,17.676 C22.791,17.955 22.900,18.301 22.957,18.706 C23.031,19.237 23.054,20.350 22.609,20.769 ZM11.500,22.800 C12.721,22.800 13.750,22.009 14.036,20.944 L8.963,20.944 C9.249,22.009 10.278,22.800 11.500,22.800 ZM11.500,1.200 C10.971,1.200 10.540,1.604 10.540,2.101 C10.540,2.597 10.971,3.002 11.500,3.002 C12.029,3.002 12.459,2.597 12.459,2.101 C12.459,1.604 12.029,1.200 11.500,1.200 ZM21.700,18.943 C21.682,18.788 21.656,18.656 21.625,18.544 L13.991,18.544 C13.638,18.544 13.352,18.276 13.352,17.944 C13.352,17.613 13.638,17.344 13.991,17.344 L20.362,17.344 C20.004,17.008 19.681,16.608 19.392,16.144 L16.378,16.144 C16.025,16.144 15.739,15.876 15.739,15.544 C15.739,15.213 16.025,14.944 16.378,14.944 L18.780,14.944 C18.199,13.556 17.823,11.774 17.643,9.579 C17.396,6.564 14.698,4.201 11.500,4.201 C8.301,4.201 5.603,6.564 5.356,9.579 C4.983,14.142 3.760,16.924 1.619,18.084 C1.524,18.136 1.360,18.407 1.299,18.943 C1.262,19.264 1.276,19.548 1.303,19.744 L21.696,19.744 C21.723,19.548 21.737,19.264 21.700,18.943 ZM11.691,18.544 L11.308,18.544 C10.955,18.544 10.669,18.276 10.669,17.944 C10.669,17.613 10.955,17.344 11.308,17.344 L11.691,17.344 C12.044,17.344 12.330,17.613 12.330,17.944 C12.330,18.276 12.044,18.544 11.691,18.544 Z"/>
</svg>