<svg xmlns="http://www.w3.org/2000/svg" width="13" height="16">
    <path fill="#4E54C8" fill-rule="evenodd" d="M11.983 3.731l-1.643-.75.085-.172c.373-.754.037-1.658-.748-2.016L8.262.148A1.619 1.619 0 0 0 7.058.089a1.54 1.54 0 0 0-.895.776l-.085.173-1.643-.75c-.86-.392-1.892-.039-2.3.786l-.42.851a.541.541 0 0 0-.023.43.57.57 0 0 0 .301.32l4.354 1.986H.587a.598.598 0 0 0-.432.182.552.552 0 0 0-.153.428l.771 8.884C.863 15.19 1.78 16 2.861 16h4.314c1.081 0 1.998-.81 2.088-1.845l.682-7.853 1.654.755a.604.604 0 0 0 .782-.268l.42-.85c.408-.826.041-1.816-.818-2.208zm-4.76-2.382a.394.394 0 0 1 .228-.199.42.42 0 0 1 .308.015l1.415.646a.38.38 0 0 1 .191.515l-.085.172-2.143-.977.086-.172zm.871 12.713c-.04.455-.443.811-.919.811H2.861c-.475 0-.879-.356-.918-.811l-.718-8.274h7.587l-.718 8.274zm3.647-8.606l-.169.341-8.546-3.898.169-.341a.562.562 0 0 1 .736-.252l7.548 3.442a.522.522 0 0 1 .262.708z"/>
</svg>
