<svg 
 xmlns="http://www.w3.org/2000/svg"
 xmlns:xlink="http://www.w3.org/1999/xlink"
 width="24px" height="24px">
<path fill-rule="evenodd"  fill="rgb(107, 129, 153)"
 d="M23.792,22.776 L17.958,16.943 C19.523,15.145 20.470,12.798 20.470,10.233 C20.470,4.587 15.877,-0.000 10.235,-0.000 C4.588,-0.000 -0.001,4.592 -0.001,10.233 C-0.001,15.874 4.593,20.466 10.235,20.466 C12.800,20.466 15.148,19.519 16.947,17.955 L22.780,23.787 C22.918,23.925 23.105,24.000 23.286,24.000 C23.467,24.000 23.653,23.931 23.792,23.787 C24.068,23.510 24.068,23.052 23.792,22.776 ZM1.431,10.233 C1.431,5.380 5.381,1.437 10.230,1.437 C15.084,1.437 19.028,5.385 19.028,10.233 C19.028,15.081 15.084,19.035 10.230,19.035 C5.381,19.035 1.431,15.086 1.431,10.233 Z"/>
</svg>