<svg xmlns="http://www.w3.org/2000/svg" width="400" height="84">
    <defs>
        <linearGradient id="a" x1="96.593%" x2="0%" y1="25.882%" y2="0%">
            <stop offset="10%" stop-color="#FFF"/>
            <stop offset="100%" stop-color="rgba(155,155,155,0)"/>
        </linearGradient>
    </defs>
    <path fill="#FFF" fill-rule="evenodd" d="M393.665 36.533h-8.639l1.556-8.83 3.718-16.274-12.81 25.104h-5.701l-4.144-26.044-2.31 18.055-1.432 7.989h-8.59L361.642.522h11.152l3.491 24.979L388.542.522h11.453l-6.33 36.011zm-40.717-18.877c-1.339 1.704-3.214 3.051-5.626 4.039l4.924 14.416v.422h-9.169l-4.018-12.738h-4.772l-2.26 12.738h-8.589L329.766.522l12.91.024c4.136 0 7.322.952 9.557 2.854 2.235 1.902 3.235 4.501 3.001 7.795-.184 2.602-.946 4.757-2.286 6.461zm-6.354-7.531c-.335-1.835-1.524-2.801-3.566-2.901l-5.827-.024-1.758 9.917 5.023.05c1.373 0 2.566-.331 3.579-.992a5.48 5.48 0 0 0 2.173-2.714c.435-1.149.561-2.261.376-3.336zm-31.8-1.837c-.838-.94-2.159-1.442-3.969-1.509-4.52-.149-7.275 3.315-8.263 10.388-.452 3.199-.678 5.483-.678 6.851-.083 4.055 1.44 6.142 4.572 6.257 2.025.066 3.641-.424 4.847-1.471 1.206-1.047 1.975-2.527 2.31-4.44l8.39-.099c-.219 2.523-1.06 4.765-2.525 6.727-1.465 1.963-3.391 3.471-5.777 4.526-2.386 1.056-4.969 1.559-7.748 1.509-3.818-.083-6.824-1.295-9.016-3.636-2.195-2.341-3.392-5.515-3.592-9.522-.151-2.671.146-5.581.892-8.73.745-3.15 1.958-5.891 3.641-8.224s3.667-4.08 5.952-5.243c2.287-1.162 4.785-1.719 7.498-1.67 3.984.066 7.137 1.245 9.456 3.537s3.579 5.45 3.78 9.473L316 12.987c.033-2.192-.369-3.76-1.206-4.699zM213.579 75.009c-2.786 5.996-7.381 8.994-13.787 8.994-1.809 0-3.647-.269-5.514-.806v-9.29l1.896.042c2.355 0 4.114-.354 5.277-1.06 1.163-.708 2.075-1.882 2.736-3.522l1.465-3.776-16.328-46.028h13.398l8.659 28.55 8.616-28.55h13.356l-18.741 53.029-1.033 2.417zm-33.78-8.697c-8.732 0-13.183-4.341-13.356-13.023V28.557h-6.806v-8.994h6.806V8.278h12.451v11.285h7.971v8.994h-7.971v22.908c0 1.696.329 2.914.991 3.648.66.736 1.924 1.104 3.79 1.104 1.379 0 2.6-.099 3.663-.298v9.291a26.045 26.045 0 0 1-7.539 1.102zM141.065.303h12.493v65.162h-12.493V.303zm-18.833 61.046c-3.016 3.309-6.937 4.963-11.762 4.963-4.567 0-8.351-1.3-11.352-3.903-3.001-2.601-4.502-5.882-4.502-9.841 0-4.864 1.831-8.598 5.493-11.201 3.661-2.601 8.954-3.916 15.875-3.944h5.73v-2.63c0-2.122-.553-3.818-1.658-5.091-1.107-1.273-2.851-1.91-5.235-1.91-2.097 0-3.741.495-4.932 1.485-1.192.991-1.788 2.348-1.788 4.072H95.65c0-2.657.833-5.117 2.499-7.381 1.666-2.262 4.021-4.037 7.065-5.324 3.045-1.286 6.462-1.929 10.254-1.929 5.744 0 10.302 1.42 13.678 4.263 3.374 2.842 5.062 6.837 5.062 11.984v19.896c.028 4.356.646 7.652 1.852 9.885v.722h-12.579c-.575-1.103-.991-2.475-1.249-4.116zm-.518-16.757h-4.653c-6.232 0-9.55 2.121-9.951 6.363l-.044.722c0 1.527.547 2.786 1.638 3.775 1.091.991 2.585 1.486 4.48 1.486 1.838 0 3.532-.404 5.084-1.21 1.551-.806 2.698-1.887 3.446-3.245v-7.891zm-56.765 9.121c2.025 1.81 4.588 2.715 7.691 2.715 4.796 0 8.544-1.711 11.243-5.132l6.118 6.745c-1.868 2.601-4.394 4.631-7.583 6.087-3.188 1.456-6.72 2.184-10.597 2.184-6.836 0-12.401-2.064-16.695-6.193-4.293-4.129-6.44-9.629-6.44-16.503v-1.187c0-4.61.905-8.732 2.714-12.367 1.81-3.634 4.373-6.433 7.69-8.399 3.318-1.966 7.101-2.948 11.352-2.948 6.376 0 11.395 1.98 15.057 5.938 3.662 3.96 5.493 9.574 5.493 16.842v5.006H61.308c.403 2.997 1.617 5.402 3.641 7.212zm13.807-15.568v-.981c-.057-2.727-.803-4.837-2.24-6.328-1.436-1.492-3.475-2.237-6.117-2.237-2.47 0-4.473.824-6.01 2.471-1.537 1.649-2.52 4.006-2.951 7.075h17.318zm-43.477 1.484l13.57 25.241v.595H34.977L23.216 42.853H12.92v22.612H-.005V3.697h23.308c7.409 0 13.124 1.626 17.145 4.879 4.021 3.252 6.032 7.848 6.032 13.786 0 4.215-.926 7.729-2.779 10.543-1.853 2.814-4.66 5.055-8.422 6.724zm-4.244-23.121c-1.679-1.668-4.258-2.502-7.732-2.502H12.92v18.538h10.426c3.244 0 5.757-.813 7.539-2.439 1.78-1.626 2.671-3.867 2.671-6.724 0-2.913-.84-5.204-2.521-6.873z"/>
    <path fill="url(#a)" fill-rule="evenodd" d="M252.334 0h36.224l-10.867 35.447h-36.225L252.334 0z"/>
</svg>
