<svg width="16" height="16" viewBox="0 0 16 16" fill="none" xmlns="http://www.w3.org/2000/svg">
<path d="M15.6421 3.84662L15.6373 3.82815C15.2513 2.31844 13.5111 0.698429 11.913 0.361398L11.895 0.357807C9.31018 -0.119269 6.68929 -0.119269 4.10498 0.357807L4.08643 0.361398C2.48887 0.698429 0.748675 2.31844 0.362142 3.82815L0.3579 3.84662C-0.1193 5.95499 -0.1193 8.09311 0.3579 10.2015L0.362142 10.2199C0.732185 11.6652 2.34279 13.2108 3.88123 13.6359V15.3211C3.88123 15.9311 4.64952 16.2306 5.08643 15.7905L6.85127 14.0156C7.23404 14.0363 7.61702 14.0479 8 14.0479C9.30117 14.0479 10.6029 13.9289 11.895 13.6903L11.913 13.6867C13.5111 13.3497 15.2513 11.7297 15.6373 10.22L15.6421 10.2015C16.1193 8.09311 16.1193 5.95499 15.6421 3.84662ZM14.2455 9.89574C13.9878 10.8807 12.6665 12.1052 11.6166 12.3314C10.2423 12.5842 8.857 12.6923 7.47312 12.6552C7.4456 12.6545 7.41914 12.6648 7.39995 12.6839C7.20355 12.8789 6.11135 13.9637 6.11135 13.9637L4.74072 15.3247C4.64051 15.4257 4.46448 15.357 4.46448 15.2174V12.4257C4.46448 12.3796 4.43043 12.3404 4.38362 12.3315C4.38335 12.3314 4.38309 12.3314 4.38282 12.3313C3.33298 12.1051 2.0122 10.8806 1.75398 9.89568C1.3245 7.98994 1.3245 6.05804 1.75398 4.15231C2.0122 3.16737 3.33298 1.94288 4.38282 1.71665C6.78314 1.27497 9.21686 1.27497 11.6166 1.71665C12.667 1.94288 13.9878 3.16737 14.2455 4.15231C14.6755 6.05809 14.6755 7.99 14.2455 9.89574Z" fill="#9697B2"/>
<path d="M6.44885 7.69039C6.28745 7.64299 6.13363 7.61113 5.99079 7.55378C4.51062 6.95964 3.14837 6.19314 2.06931 5.01815C1.45569 4.34999 0.975409 3.59564 0.569418 2.79733C0.376894 2.41875 0.214646 2.02534 0.0492695 1.6345C-0.101526 1.27808 0.120584 0.909858 0.354466 0.641311C0.573925 0.389281 0.856321 0.196399 1.16215 0.0542508C1.40086 -0.0567078 1.63633 0.00726106 1.81067 0.203016C2.18755 0.626229 2.53373 1.07109 2.81406 1.56166C2.98644 1.86339 2.93914 2.23223 2.62674 2.43758C2.55081 2.48749 2.48161 2.54607 2.41088 2.60245C2.34885 2.65185 2.29047 2.70177 2.24794 2.76866C2.17021 2.89106 2.1665 3.03541 2.21655 3.16848C2.60181 4.19281 3.25118 4.98932 4.31682 5.41833C4.48734 5.48697 4.6586 5.56689 4.85505 5.54473C5.18405 5.50754 5.29057 5.1584 5.52111 4.97598C5.74646 4.79772 6.03442 4.79536 6.27716 4.94397C6.51995 5.09263 6.75531 5.25222 6.98925 5.41351C7.21889 5.57181 7.44752 5.72668 7.65934 5.90715C7.863 6.08069 7.93315 6.30836 7.81846 6.54387C7.6085 6.97519 7.30298 7.33402 6.86226 7.56307C6.73782 7.62765 6.5892 7.64858 6.44885 7.69039C6.28745 7.64294 6.5892 7.64858 6.44885 7.69039Z" transform="translate(3.83472 3.49399)" fill="#9697B2"/>
<path d="M0.349057 0.000779076C2.28517 0.0532574 3.87536 1.29637 4.21613 3.14825C4.27419 3.46379 4.29487 3.7864 4.32069 4.10666C4.33156 4.24137 4.25272 4.36936 4.10245 4.3711C3.94725 4.3729 3.87742 4.24727 3.86735 4.11261C3.84741 3.84606 3.83357 3.57834 3.79561 3.31399C3.59519 1.91862 2.44513 0.764204 1.00956 0.516483C0.793543 0.479189 0.57244 0.469391 0.353617 0.447179C0.215282 0.433123 0.0341047 0.425018 0.00345784 0.258657C-0.022258 0.119176 0.0994282 0.00811543 0.236703 0.00098494C0.274031 -0.0010157 0.311571 0.000625181 0.349057 0.000779076C2.28517 0.0532574 0.311571 0.000625181 0.349057 0.000779076Z" transform="translate(7.65503 3.05428)" fill="#9697B2"/>
<path d="M2.93576 2.68987C2.93257 2.71326 2.93088 2.76825 2.91672 2.82006C2.86534 3.00812 2.57064 3.03167 2.50278 2.84186C2.48268 2.78554 2.47966 2.72147 2.47955 2.66083C2.47886 2.26409 2.38973 1.86776 2.18295 1.52257C1.97038 1.16779 1.64562 0.86954 1.26471 0.689072C1.03438 0.57996 0.785279 0.512143 0.53284 0.47172C0.422501 0.454074 0.310994 0.443352 0.200125 0.428424C0.0657662 0.410367 -0.00597286 0.327519 0.000389811 0.199427C0.00632831 0.0793887 0.0969969 -0.00694657 0.232204 0.000440414C0.67653 0.0248585 1.10569 0.117761 1.50071 0.320133C2.30399 0.731701 2.76285 1.38135 2.89678 2.2488C2.90283 2.2881 2.91258 2.32703 2.91566 2.36648C2.92324 2.4639 2.92801 2.56142 2.93576 2.68987C2.93257 2.71326 2.92801 2.56142 2.93576 2.68987Z" transform="translate(8.01074 4.05544)" fill="#9697B2"/>
<path d="M1.4374 1.61834C1.27541 1.62116 1.18872 1.53441 1.17202 1.39073C1.16041 1.29054 1.15124 1.18902 1.12653 1.09155C1.07785 0.899593 0.972394 0.721691 0.805479 0.604063C0.726688 0.548507 0.637399 0.508032 0.543867 0.481921C0.425044 0.448731 0.301661 0.457862 0.183104 0.429751C0.0543656 0.399228 -0.0168429 0.298376 0.00341157 0.181518C0.0218103 0.0751759 0.128756 -0.00782545 0.248852 0.000587499C0.999488 0.0530146 1.53597 0.428468 1.61253 1.28341C1.61794 1.34374 1.6243 1.4075 1.61046 1.46521C1.58676 1.56401 1.51115 1.61351 1.4374 1.61834C1.27541 1.62116 1.51115 1.61351 1.4374 1.61834Z" transform="translate(8.30469 5.08157)" fill="#9697B2"/>
</svg>
