<svg width="16" height="16" viewBox="0 0 16 16" fill="none" xmlns="http://www.w3.org/2000/svg">
<path d="M15.1111 0H0.888889C0.653141 0 0.427049 0.0936505 0.26035 0.26035C0.0936505 0.427049 0 0.653141 0 0.888889L0 15.1111C0 15.3469 0.0936505 15.573 0.26035 15.7397C0.427049 15.9064 0.653141 16 0.888889 16H8.54667V9.81333H6.46889V7.39111H8.54667V5.61333C8.54667 3.54667 9.80889 2.42 11.6578 2.42C12.2798 2.41818 12.9014 2.45008 13.52 2.51556V4.66667H12.2444C11.2422 4.66667 11.0467 5.14444 11.0467 5.84444V7.38667H13.4444L13.1333 9.80889H11.0467V16H15.1111C15.3469 16 15.573 15.9064 15.7397 15.7397C15.9064 15.573 16 15.3469 16 15.1111V0.888889C16 0.653141 15.9064 0.427049 15.7397 0.26035C15.573 0.0936505 15.3469 0 15.1111 0V0Z" fill="#4267B2"/>
<path d="M4.57778 13.5845V7.39785H6.66444L6.97556 4.97563H4.57778V3.43341C4.57778 2.73341 4.77333 2.25563 5.77556 2.25563H7.04667V0.0956291C6.42811 0.0301544 5.80646 -0.00174429 5.18444 7.35061e-05C3.34 7.35061e-05 2.07333 1.12674 2.07333 3.19341V4.97119H0V7.39341H2.07778V13.5845H4.57778Z" transform="translate(6.46899 2.4155)" fill="white"/>
</svg>
