<svg width="16" height="16" viewBox="0 0 16 16" fill="none" xmlns="http://www.w3.org/2000/svg">
<path fill-rule="evenodd" clip-rule="evenodd" d="M5.54667 0C10.0267 0 5.97333 0 10.4533 0C14.9333 0 16 1.06667 16 5.54667C16 10.0267 16 5.97333 16 10.4533C16 14.9333 14.9333 16 10.4533 16C5.97333 16 10.0267 16 5.54667 16C1.06667 16 0 14.9333 0 10.4533C0 5.97333 0 8.04836 0 5.54667C0 1.06667 1.06667 0 5.54667 0Z" fill="#5181B8"/>
<path fill-rule="evenodd" clip-rule="evenodd" d="M10.4195 0.428851C10.4936 0.181647 10.4195 0 10.0667 0H8.9C8.60336 0 8.4666 0.156917 8.39243 0.32995C8.39243 0.32995 7.79914 1.77608 6.95867 2.71543C6.68675 2.98735 6.56314 3.07386 6.41482 3.07386C6.34067 3.07386 6.23332 2.98735 6.23332 2.74016V0.428851C6.23332 0.132207 6.14723 0 5.9 0H4.06667C3.88129 0 3.76981 0.137679 3.76981 0.268164C3.76981 0.549378 4.19002 0.614229 4.23334 1.40528V3.12333C4.23334 3.5 4.16531 3.56829 4.01699 3.56829C3.62148 3.56829 2.65941 2.1157 2.08882 0.453562C1.977 0.130499 1.86484 0 1.56667 0H0.400004C0.0666707 0 0 0.156917 0 0.32995C0 0.63896 0.395526 2.1716 1.84163 4.19864C2.8057 5.58294 4.164 6.33333 5.4 6.33333C6.1416 6.33333 6.23334 6.16667 6.23334 5.87958V4.83333C6.23334 4.5 6.30359 4.43348 6.53843 4.43348C6.71146 4.43348 7.00811 4.51999 7.70028 5.18743C8.49131 5.97847 8.62172 6.33333 9.06667 6.33333H10.2333C10.5667 6.33333 10.7333 6.16667 10.6372 5.83776C10.532 5.50995 10.1543 5.03434 9.65316 4.47055C9.38122 4.1492 8.97335 3.80313 8.84974 3.63006C8.67671 3.40761 8.72615 3.3087 8.84974 3.11096C8.84974 3.11096 10.2712 1.10864 10.4195 0.428851Z" transform="translate(2.68311 5.08331)" fill="white"/>
</svg>
