<svg width="16" height="16" viewBox="0 0 16 16" fill="none" xmlns="http://www.w3.org/2000/svg">
<path d="M16 13.6586C16 14.9518 14.9571 16 13.6706 16H2.32943C1.04291 16 0 14.9518 0 13.6586V2.34137C0 1.04826 1.04291 0 2.32943 0H13.6706C14.9571 0 16 1.04826 16 2.34137V13.6586V13.6586Z" fill="#FAAB62"/>
<path d="M15.8356 13.5183C15.8356 14.7982 14.8034 15.8356 13.5301 15.8356H2.30547C1.03218 15.8356 0 14.7982 0 13.5183V2.3173C0 1.03748 1.03222 0 2.30547 0H13.5301C14.8034 0 15.8356 1.03752 15.8356 2.3173V13.5183Z" transform="translate(0.0822754 0.0822144)" fill="#F7931E"/>
<path d="M2.87118 0C1.28545 0 0 1.29209 0 2.8859C0 4.47976 1.28545 5.77193 2.87118 5.77193C4.4569 5.77193 5.74236 4.47976 5.74236 2.8859C5.74236 1.29209 4.4569 0 2.87118 0ZM2.87118 4.07895C2.21569 4.07895 1.6843 3.54479 1.6843 2.88594C1.6843 2.2271 2.21569 1.69298 2.87118 1.69298C3.52666 1.69298 4.05806 2.2271 4.05806 2.88594C4.05806 3.54479 3.52666 4.07895 2.87118 4.07895Z" transform="translate(5.11987 2.3913)" fill="white"/>
<path d="M4.28779 2.20877C5.43724 1.97341 6.12604 1.42628 6.16249 1.39692C6.49884 1.12579 6.55287 0.63193 6.28313 0.293814C6.01342 -0.0442609 5.52213 -0.0985692 5.18569 0.172519C5.17859 0.1783 4.44392 0.74476 3.23514 0.745586C2.0264 0.74476 1.27621 0.1783 1.2691 0.172519C0.93267 -0.0985692 0.441376 -0.0442609 0.171672 0.293814C-0.098074 0.63193 -0.0440426 1.12579 0.292307 1.39692C0.329246 1.42669 1.04649 1.98807 2.22815 2.2179L0.581283 3.94784C0.281994 4.25982 0.290993 4.75656 0.601375 5.05739C0.752868 5.2042 0.94812 5.27718 1.14321 5.27718C1.34775 5.27718 1.55208 5.19685 1.70526 5.03715L3.23518 3.39902L4.91965 5.04776C5.22485 5.35404 5.71906 5.35354 6.02369 5.0469C6.32832 4.74021 6.32795 4.24338 6.02283 3.93719L4.28779 2.20877Z" transform="translate(4.7168 8.25073)" fill="white"/>
<path d="M0.000515836 0C-0.00125716 0 0.00225111 3.78697e-05 0.000515836 7.5781e-05C-0.00121944 3.78697e-05 0.00228884 0 0.000515836 0Z" transform="translate(7.95142 8.99631)" fill="white"/>
</svg>
